<?xml version="1.0" standalone="no"?>
<!DOCTYPE svg PUBLIC "-//W3C//DTD SVG 20010904//EN"
 "http://www.w3.org/TR/2001/REC-SVG-20010904/DTD/svg10.dtd">
<svg version="1.0" xmlns="http://www.w3.org/2000/svg"
 width="2500.000000pt" height="2500.000000pt" viewBox="0 0 2500.000000 2500.000000"
 preserveAspectRatio="xMidYMid meet">
<metadata>
Created by potrace 1.11, written by Peter Selinger 2001-2013
</metadata>
<g transform="translate(0.000000,2500.000000) scale(0.100000,-0.100000)"
fill="#000000" stroke="none">
<path d="M12348 24945 c-2 -1 -39 -6 -83 -10 -44 -4 -82 -8 -85 -10 -3 -2 -24
-6 -46 -9 -89 -14 -205 -43 -309 -78 -161 -55 -232 -90 -600 -298 -355 -201
-510 -288 -555 -313 -30 -16 -59 -33 -65 -37 -5 -4 -30 -18 -55 -32 -25 -14
-155 -87 -290 -163 -134 -76 -260 -146 -280 -157 -19 -11 -48 -27 -65 -37 -47
-28 -355 -202 -407 -231 -50 -27 -527 -296 -693 -391 -55 -31 -122 -69 -150
-84 -27 -16 -81 -46 -120 -68 -38 -22 -90 -51 -115 -65 -25 -13 -110 -61 -190
-107 -127 -72 -199 -113 -340 -192 -84 -47 -370 -209 -545 -308 -104 -59 -210
-119 -235 -133 -25 -13 -74 -42 -110 -62 -36 -20 -85 -49 -110 -62 -25 -14
-162 -91 -304 -172 -143 -80 -263 -146 -268 -146 -4 0 -8 -4 -8 -10 0 -5 -5
-10 -11 -10 -6 0 -41 -17 -77 -39 -72 -41 -142 -81 -207 -116 -22 -12 -64 -36
-93 -54 -29 -17 -81 -46 -115 -65 -34 -18 -109 -60 -167 -94 -114 -65 -1096
-619 -1170 -660 -25 -14 -49 -28 -55 -32 -5 -4 -39 -23 -75 -43 -36 -19 -130
-72 -210 -117 -151 -86 -201 -114 -272 -154 -24 -12 -126 -70 -228 -128 -102
-58 -216 -122 -255 -143 -38 -21 -77 -44 -86 -51 -8 -8 -19 -14 -22 -14 -4 0
-69 -35 -144 -79 -76 -43 -156 -89 -178 -101 -781 -436 -907 -511 -1034 -613
-157 -128 -296 -282 -413 -460 -61 -94 -172 -311 -184 -362 -4 -16 -10 -34
-14 -40 -3 -5 -12 -30 -19 -55 -7 -25 -17 -56 -22 -70 -5 -14 -10 -36 -13 -50
-2 -14 -9 -47 -15 -75 -15 -71 -20 -102 -28 -175 -9 -82 -10 -10830 0 -10925
47 -500 328 -997 747 -1321 59 -46 187 -134 195 -134 1 0 54 -29 116 -63 63
-35 141 -79 174 -97 96 -53 625 -351 678 -382 26 -15 50 -28 53 -28 3 0 18 -8
32 -19 15 -10 51 -31 80 -47 29 -16 61 -34 70 -39 20 -12 317 -181 382 -217
298 -168 337 -189 460 -256 36 -19 70 -38 75 -42 10 -7 138 -75 340 -180 153
-80 375 -191 440 -220 28 -12 74 -33 103 -46 29 -13 57 -24 62 -24 6 0 29 -9
53 -20 168 -77 633 -204 867 -236 25 -3 47 -8 51 -9 3 -2 39 -7 80 -10 40 -4
80 -8 87 -11 74 -23 695 -23 818 0 11 2 45 7 75 10 187 20 563 113 714 177 11
4 60 24 109 44 533 216 907 575 1174 1127 23 48 42 89 42 93 0 3 9 24 19 48
45 98 134 384 160 517 6 30 14 66 16 80 3 14 8 41 11 60 3 19 7 46 9 60 3 14
7 48 11 75 3 28 7 61 9 75 17 119 19 912 20 5585 l0 5330 -23 48 c-31 62 -83
114 -139 139 -44 19 -67 20 -602 22 -657 1 -761 -2 -815 -29 -51 -25 -104 -80
-128 -133 -19 -43 -20 -121 -22 -5335 -2 -2911 -6 -5303 -9 -5317 -4 -13 -9
-42 -13 -64 -19 -130 -113 -339 -212 -471 -235 -314 -581 -478 -1012 -479
-101 -1 -221 8 -285 19 -212 38 -395 95 -594 185 -104 47 -137 64 -351 185
-80 45 -167 94 -195 110 -27 15 -102 57 -165 93 -63 36 -135 76 -160 90 -25
14 -196 111 -380 215 -184 104 -364 206 -400 225 -36 19 -77 43 -92 54 -14 10
-29 18 -32 18 -3 0 -27 13 -54 29 -56 33 -140 80 -192 107 -19 11 -37 21 -40
24 -5 5 -31 20 -95 55 -22 12 -154 86 -293 165 -279 158 -320 191 -347 284
-14 45 -15 641 -15 5341 0 2910 2 5300 4 5312 15 75 92 177 162 213 16 8 65
36 109 61 45 25 108 61 141 79 32 18 250 141 484 273 560 315 621 350 645 364
11 7 27 16 35 20 8 4 94 52 190 106 96 55 245 139 330 187 230 129 641 360
675 381 17 10 53 30 80 45 75 41 96 53 140 78 22 13 63 36 90 51 28 15 79 44
115 65 88 51 361 204 380 213 8 4 29 15 45 26 25 15 467 265 635 359 25 13 74
42 110 62 36 20 86 49 112 63 26 15 83 46 125 70 88 50 122 69 208 117 33 18
93 53 133 77 41 24 75 43 77 43 1 0 47 25 101 56 55 31 119 68 144 82 25 14
223 125 440 248 217 122 460 259 540 304 199 113 214 122 305 172 149 83 1260
710 1290 728 17 10 53 30 80 45 28 15 100 55 160 90 61 34 182 103 270 152 88
50 315 178 505 285 686 387 652 370 724 375 90 8 139 -7 269 -81 62 -35 135
-76 162 -91 28 -16 82 -46 120 -68 87 -50 375 -211 435 -245 25 -13 50 -28 55
-32 6 -4 39 -23 75 -43 36 -19 115 -63 175 -97 61 -34 130 -74 155 -88 25 -13
90 -51 145 -82 55 -31 125 -71 155 -87 30 -17 161 -90 290 -163 302 -171 543
-306 600 -338 25 -14 74 -42 110 -62 36 -21 85 -49 110 -63 25 -14 131 -73
235 -132 105 -59 208 -118 230 -130 22 -12 166 -93 320 -180 154 -87 300 -169
325 -183 25 -14 185 -104 355 -200 171 -96 330 -186 355 -200 25 -14 61 -34
80 -45 19 -11 69 -39 110 -63 41 -23 140 -78 219 -123 79 -44 148 -81 153 -81
4 0 8 -4 8 -10 0 -5 5 -10 10 -10 6 0 61 -29 123 -64 317 -180 416 -236 462
-261 28 -16 131 -74 230 -130 99 -56 205 -115 235 -132 30 -17 105 -59 165
-93 61 -34 130 -74 155 -88 25 -13 71 -40 103 -58 32 -19 60 -34 62 -34 2 0
43 -23 92 -51 48 -28 122 -70 163 -94 102 -57 151 -85 320 -180 80 -45 165
-93 190 -107 25 -14 135 -76 245 -138 110 -62 220 -124 245 -138 25 -14 185
-104 355 -200 171 -96 330 -186 355 -200 25 -14 79 -44 120 -67 41 -24 92 -52
113 -64 21 -12 71 -40 110 -63 40 -22 86 -48 102 -57 135 -72 329 -187 351
-209 41 -41 71 -92 86 -147 20 -72 19 -10608 -2 -10672 -29 -94 -84 -142 -281
-250 -32 -17 -68 -38 -80 -46 -13 -8 -49 -28 -79 -44 -30 -17 -73 -40 -95 -53
-22 -12 -177 -100 -345 -195 -168 -94 -325 -183 -350 -197 -25 -14 -130 -74
-235 -133 -240 -136 -237 -134 -500 -283 -121 -69 -240 -136 -265 -149 -25
-14 -79 -45 -120 -68 -96 -55 -431 -244 -490 -277 -25 -14 -171 -96 -325 -183
-154 -87 -300 -169 -325 -183 -59 -33 -544 -307 -685 -387 -60 -34 -128 -72
-150 -84 -22 -12 -56 -31 -75 -42 -19 -12 -75 -44 -125 -72 -49 -27 -106 -59
-125 -70 -19 -11 -55 -31 -80 -45 -25 -14 -74 -42 -110 -62 -36 -20 -87 -50
-115 -65 -27 -15 -120 -67 -205 -115 -85 -49 -174 -99 -197 -112 -150 -83
-254 -142 -293 -164 -103 -60 -435 -247 -488 -276 -31 -17 -110 -62 -176 -100
-65 -37 -121 -68 -123 -68 -3 0 -39 -20 -80 -45 -40 -25 -76 -45 -78 -45 -2 0
-26 -13 -53 -29 -27 -16 -76 -44 -108 -62 -33 -18 -173 -97 -313 -176 -139
-78 -255 -143 -257 -143 -2 0 -33 -18 -69 -40 -36 -22 -67 -40 -70 -40 -3 0
-34 -18 -70 -40 -36 -22 -67 -40 -70 -40 -2 0 -30 -15 -62 -34 -59 -35 -662
-375 -878 -496 -66 -37 -187 -105 -270 -152 -168 -96 -179 -102 -355 -200 -69
-39 -129 -74 -135 -78 -30 -23 -172 -92 -221 -106 -69 -20 -156 -14 -205 14
-29 17 -389 223 -499 285 -19 11 -48 28 -65 38 -16 11 -37 22 -45 26 -8 4 -62
35 -120 69 -58 33 -235 137 -395 229 -159 93 -333 194 -385 225 -52 31 -102
60 -110 64 -8 4 -24 12 -35 19 -11 7 -56 33 -100 58 -44 25 -136 79 -205 119
-69 40 -145 84 -170 98 -25 14 -79 45 -120 70 -199 118 -220 127 -295 127 -73
0 -87 -5 -253 -97 -91 -50 -344 -182 -397 -207 -161 -76 -217 -101 -275 -126
-36 -14 -78 -32 -95 -40 -16 -7 -136 -49 -265 -93 -129 -44 -248 -86 -265 -93
-67 -30 -175 -114 -175 -137 0 -14 124 -135 172 -168 24 -16 45 -31 48 -34 7
-8 117 -73 185 -110 33 -18 74 -42 90 -52 17 -10 37 -21 45 -25 8 -3 31 -16
50 -28 19 -12 55 -33 80 -47 25 -14 112 -64 193 -112 82 -47 151 -86 153 -86
3 0 17 -8 32 -19 15 -10 151 -89 302 -176 151 -87 300 -173 330 -191 50 -29
712 -412 787 -455 99 -56 570 -329 638 -369 44 -26 98 -58 120 -70 22 -12 77
-44 122 -72 70 -42 188 -100 308 -153 94 -41 353 -107 470 -120 33 -3 80 -8
105 -11 63 -8 250 -7 345 0 235 19 480 86 693 191 50 24 175 92 278 151 104
59 243 137 309 174 66 37 136 76 155 87 19 11 213 120 430 243 217 123 463
261 545 308 83 46 168 94 190 107 22 12 58 32 80 45 51 29 258 146 310 175 22
12 58 32 80 45 22 12 130 73 240 135 276 156 271 153 308 174 31 18 484 273
562 317 22 13 67 37 100 55 33 17 71 39 85 49 14 9 57 34 95 55 86 47 57 31
475 267 190 107 365 206 390 220 50 28 89 50 200 113 127 72 153 87 200 113
25 14 90 51 145 82 55 31 120 68 145 82 25 14 169 95 320 180 285 161 347 196
415 233 22 12 90 50 150 85 61 35 144 82 185 105 41 23 181 102 310 175 129
73 255 144 280 158 83 46 104 58 385 217 154 87 298 169 320 181 22 12 126 70
230 129 267 151 273 155 327 186 27 16 51 29 53 29 2 0 57 31 124 69 66 38
148 85 183 104 35 19 79 44 98 56 19 11 62 35 95 53 33 18 68 37 77 43 9 5 81
46 160 90 78 44 158 89 178 100 19 11 87 49 150 84 319 178 511 348 727 643
75 103 192 334 238 473 22 66 53 182 73 275 14 68 16 563 18 5545 2 3335 -1
5493 -7 5530 -5 33 -11 76 -14 95 -10 75 -59 250 -98 350 -117 306 -303 566
-575 802 -91 79 -343 230 -962 576 -25 14 -216 122 -425 240 -461 260 -421
238 -690 390 -121 68 -240 136 -265 150 -25 14 -126 71 -225 127 -99 56 -198
112 -220 123 -22 12 -58 33 -80 47 -22 14 -47 28 -55 32 -8 4 -130 72 -270
151 -277 157 -549 310 -620 350 -25 13 -49 28 -55 32 -5 4 -35 21 -65 37 -30
16 -109 60 -175 98 -66 37 -140 79 -165 93 -52 29 -177 99 -235 132 -22 13
-74 42 -115 65 -41 23 -91 51 -110 62 -184 105 -596 337 -693 392 -178 100
-185 104 -382 216 -99 56 -206 117 -239 134 -82 46 -158 90 -176 101 -8 6 -21
13 -29 17 -7 3 -93 51 -190 106 -97 55 -196 111 -221 125 -179 101 -458 258
-580 327 -80 45 -255 144 -390 220 -135 76 -274 155 -310 175 -61 36 -712 404
-810 458 -25 14 -97 54 -160 90 -63 36 -131 74 -150 85 -19 10 -65 37 -102 58
-36 22 -70 39 -73 39 -4 0 -19 8 -33 18 -15 11 -52 32 -82 49 -74 40 -144 80
-199 113 -151 88 -356 171 -531 215 -90 23 -110 26 -205 40 -22 3 -51 8 -65
12 -25 5 -386 13 -392 8z"/>
<path d="M14678 17405 c-2 -2 -69 -6 -148 -9 -153 -7 -295 -15 -370 -21 -69
-7 -232 -26 -260 -31 -14 -2 -43 -7 -65 -9 -22 -3 -65 -10 -95 -15 -30 -5 -73
-12 -95 -16 -65 -10 -286 -54 -293 -58 -4 -2 -23 -7 -42 -10 -71 -11 -399
-106 -535 -154 -228 -81 -504 -205 -650 -293 -16 -10 -43 -26 -60 -35 -76 -43
-332 -221 -371 -258 -6 -6 -40 -36 -75 -66 -68 -58 -201 -190 -259 -255 -87
-99 -210 -268 -236 -325 -4 -8 -13 -22 -20 -30 -21 -26 -121 -230 -162 -335
-62 -155 -132 -404 -148 -525 -3 -25 -8 -48 -10 -51 -1 -3 -6 -37 -9 -75 -4
-38 -9 -80 -12 -94 -3 -14 -6 -122 -8 -240 -2 -194 14 -411 39 -526 2 -12 7
-39 10 -60 4 -22 8 -46 11 -54 2 -8 6 -26 9 -40 5 -31 48 -184 74 -265 199
-615 725 -1098 1517 -1393 251 -93 625 -199 910 -257 218 -44 411 -79 520 -95
39 -5 81 -12 95 -14 14 -3 63 -10 110 -16 47 -6 96 -13 110 -15 45 -7 184 -24
245 -30 33 -4 71 -8 85 -11 14 -2 52 -6 85 -10 33 -3 70 -7 83 -9 13 -2 56 -7
95 -10 40 -4 83 -9 97 -11 14 -2 54 -7 90 -9 36 -3 76 -7 90 -10 14 -2 57 -7
95 -10 39 -4 81 -8 95 -10 33 -5 113 -14 175 -20 28 -2 124 -13 215 -25 91
-11 190 -23 220 -26 30 -3 62 -7 70 -9 8 -2 38 -7 65 -10 28 -4 64 -9 80 -11
17 -3 45 -7 64 -10 30 -4 218 -35 393 -65 105 -17 339 -69 476 -104 75 -19
157 -40 182 -46 25 -6 54 -14 65 -18 11 -4 81 -27 155 -51 496 -160 747 -386
787 -714 10 -75 10 -315 1 -376 -29 -202 -122 -434 -223 -560 -165 -206 -486
-396 -860 -510 -79 -24 -307 -75 -375 -85 -25 -3 -52 -8 -60 -10 -8 -2 -37 -6
-65 -10 -27 -3 -84 -10 -125 -15 -41 -5 -106 -12 -145 -15 -38 -3 -97 -7 -130
-10 -225 -18 -509 -29 -747 -28 -221 1 -707 12 -788 18 -25 1 -99 6 -165 10
-65 4 -126 8 -135 10 -8 2 -49 6 -90 10 -41 3 -82 8 -90 10 -8 2 -40 7 -70 10
-46 5 -127 19 -245 41 -21 4 -118 26 -215 48 -89 21 -317 100 -431 150 -128
56 -307 155 -388 214 -80 59 -204 181 -260 257 -184 250 -306 574 -370 984
-20 128 -96 225 -195 252 -47 13 -1288 17 -1346 4 -77 -17 -151 -71 -189 -140
-33 -61 -18 -539 24 -735 3 -14 8 -41 11 -60 19 -123 90 -369 156 -540 48
-124 174 -374 244 -483 91 -144 227 -311 353 -437 135 -134 147 -145 264 -238
325 -258 737 -474 1202 -630 83 -28 175 -57 205 -66 75 -20 212 -57 230 -61
278 -65 549 -116 730 -139 25 -4 56 -8 70 -10 31 -6 186 -24 260 -30 30 -3 80
-8 110 -11 161 -15 448 -33 645 -41 108 -4 773 -4 855 1 165 8 365 22 445 30
28 3 75 7 105 10 30 4 69 8 85 10 17 2 57 7 90 10 33 3 69 8 80 10 11 2 43 7
70 10 49 6 278 42 319 51 12 3 35 7 51 9 24 4 211 43 285 60 8 2 76 20 150 40
74 20 142 38 150 40 55 14 338 111 395 135 11 5 65 27 120 50 432 180 805 422
1100 716 449 448 699 1002 761 1693 14 158 9 454 -11 606 -3 28 -8 68 -11 90
-17 141 -74 388 -125 538 -107 316 -320 613 -609 847 -30 25 -57 47 -60 50 -3
3 -27 21 -55 39 -27 19 -52 37 -55 40 -3 4 -14 11 -25 18 -11 6 -56 34 -100
61 -242 150 -542 276 -935 392 -41 12 -86 26 -100 31 -40 13 -294 79 -430 111
-123 29 -627 130 -705 142 -22 4 -56 9 -75 11 -19 3 -60 10 -90 15 -110 19
-126 21 -153 25 -16 2 -40 6 -55 9 -15 3 -51 8 -81 11 -30 4 -63 9 -75 11 -12
2 -41 6 -66 9 -25 4 -67 10 -95 15 -27 5 -72 12 -100 15 -67 7 -135 16 -165
21 -25 4 -143 20 -215 30 -22 2 -56 6 -75 9 -19 2 -51 6 -70 9 -19 3 -53 8
-75 10 -22 3 -56 7 -75 10 -19 3 -53 7 -75 10 -33 4 -341 48 -500 71 -59 9
-477 77 -500 81 -11 3 -36 7 -55 10 -19 3 -143 28 -275 55 -132 28 -251 52
-265 55 -14 3 -38 9 -55 14 -16 5 -69 19 -116 30 -48 11 -142 39 -210 61 -242
79 -387 152 -488 249 -138 132 -181 249 -187 515 -4 162 3 215 42 358 42 155
147 326 269 439 60 56 209 150 329 208 286 138 627 219 1071 255 44 4 96 8
115 10 233 23 1141 23 1282 0 13 -2 63 -6 112 -10 50 -4 97 -8 105 -10 9 -1
41 -5 71 -9 117 -14 126 -16 270 -42 345 -62 709 -200 920 -348 156 -110 328
-299 437 -483 106 -178 206 -434 253 -643 23 -102 39 -141 79 -197 34 -46 86
-83 141 -99 22 -6 277 -10 685 -10 l650 1 56 26 c110 52 153 116 153 229 0 76
-10 234 -18 280 -2 14 -10 66 -16 115 -6 50 -16 106 -20 125 -5 19 -12 51 -15
70 -3 19 -11 53 -16 75 -6 22 -12 47 -14 56 -6 32 -47 166 -82 269 -64 188
-195 469 -274 588 -16 24 -29 46 -29 49 0 18 -189 273 -280 378 -57 66 -239
242 -309 299 -297 242 -678 437 -1196 611 -237 80 -632 173 -890 210 -22 3
-53 8 -70 10 -70 11 -86 14 -141 20 -33 4 -70 8 -83 11 -14 2 -54 6 -90 9 -36
3 -86 8 -111 11 -25 2 -79 6 -120 9 -41 3 -102 8 -135 11 -65 6 -1062 14
-1067 9z"/>
</g>
</svg>
